<svg width="515" height="273" viewBox="0 0 515 273" fill="none" xmlns="http://www.w3.org/2000/svg">
<path d="M354.892 110.547L354 108.793L353.109 110.547L337.347 141.563L337.805 106.775L337.831 104.807L336.226 105.946L307.856 126.085L324.429 95.4947L325.366 93.7645L323.416 94.0274L288.937 98.6753L317.827 79.2902L319.461 78.1938L317.612 77.5202L284.922 65.6124L319.512 61.8738L321.468 61.6624L320.144 60.2067L296.732 34.4711L329.098 47.2354L330.928 47.9573L330.432 46.053L321.662 12.3853L344.388 38.7284L345.674 40.2184L346.119 38.3017L354 4.41474L361.881 38.3017L362.326 40.2184L363.612 38.7284L386.338 12.3853L377.568 46.053L377.072 47.9573L378.902 47.2354L411.268 34.4711L387.856 60.2067L386.532 61.6624L388.488 61.8738L423.078 65.6124L390.388 77.5202L388.539 78.1938L390.173 79.2902L419.063 98.6753L384.584 94.0274L382.634 93.7645L383.571 95.4947L400.144 126.085L371.774 105.946L370.169 104.807L370.195 106.775L370.653 141.563L354.892 110.547Z" stroke="#6A6C8E" stroke-width="2"/>
</svg>
